<svg xmlns="http://www.w3.org/2000/svg" data-name="Layer 1" viewBox="0 0 512 512" x="0px" y="0px" style="max-width:100%" height="100%"><title style="" fill="currentColor">bullets</title><path d="M471.49,243H465V155.6a7.811,7.811,0,0,0-.232-2.971L453,122.357V83.93A66.49,66.49,0,0,0,446.323,55.5l-21-43.632a8.066,8.066,0,0,0-14.515,0L389.69,55.5A66.51,66.51,0,0,0,383,83.93v38.427l-5.5,14.866L372,122.357V83.93A66.49,66.49,0,0,0,365.323,55.5l-21-43.632a8.066,8.066,0,0,0-14.515,0L308.69,55.5A66.51,66.51,0,0,0,302,83.93v38.427l-5.5,14.866L291,122.357V83.93A66.49,66.49,0,0,0,284.323,55.5l-21-43.632a8.066,8.066,0,0,0-14.515,0L227.69,55.5A66.51,66.51,0,0,0,221,83.93v38.427l-5.5,14.866L210,122.357V83.93A66.49,66.49,0,0,0,203.323,55.5l-21-43.632a8.066,8.066,0,0,0-14.515,0L146.69,55.5A66.51,66.51,0,0,0,140,83.93v38.427l-5.5,14.866L129,122.357V83.93A66.49,66.49,0,0,0,122.323,55.5l-21-43.632a8.066,8.066,0,0,0-14.515,0L65.69,55.5A66.51,66.51,0,0,0,59,83.93v38.427L47.232,152.628A7.811,7.811,0,0,0,47,155.6V243H40.51c-4.418,0-7.51,3.64-7.51,8.059V496.68c0,4.418,3.092,8.32,7.51,8.32H471.49c4.418,0,7.51-3.9,7.51-8.32V251.059C479,246.64,475.908,243,471.49,243ZM387,243V211h62v32ZM144,211h62v32H144Zm81,0h62v32H225Zm81,0h62v32H306Zm92.768-84.131A7.814,7.814,0,0,0,399,123.9V83.93a50.407,50.407,0,0,1,5.108-21.524l13.78-28.556,13.947,28.556A50.439,50.439,0,0,1,437,83.93V123.9a7.814,7.814,0,0,0,.232,2.972L449,157.14V195H387V157.14Zm-81,0A7.814,7.814,0,0,0,318,123.9V83.93a50.407,50.407,0,0,1,5.108-21.524l13.78-28.556,13.947,28.556A50.439,50.439,0,0,1,356,83.93V123.9a7.814,7.814,0,0,0,.232,2.972L368,157.14V195H306V157.14Zm-81,0A7.814,7.814,0,0,0,237,123.9V83.93a50.407,50.407,0,0,1,5.108-21.524l13.78-28.556,13.947,28.556A50.439,50.439,0,0,1,275,83.93V123.9a7.814,7.814,0,0,0,.232,2.972L287,157.14V195H225V157.14Zm-81,0A7.814,7.814,0,0,0,156,123.9V83.93a50.407,50.407,0,0,1,5.108-21.524l13.78-28.556,13.947,28.556A50.439,50.439,0,0,1,194,83.93V123.9a7.814,7.814,0,0,0,.232,2.972L206,157.14V195H144V157.14Zm-81,0A7.814,7.814,0,0,0,75,123.9V83.93a50.407,50.407,0,0,1,5.108-21.524L93.888,33.85l13.947,28.556A50.439,50.439,0,0,1,113,83.93V123.9a7.814,7.814,0,0,0,.232,2.972L125,157.14V195H63V157.14ZM63,211h62v32H63ZM463,489H49V259H463Z" style="" fill="currentColor"></path><path d="M388,321a8,8,0,0,0-8-8H132a8,8,0,0,0-8,8V426a8,8,0,0,0,8,8H380a8,8,0,0,0,8-8Zm-248,8H372v89H140Z" style="" fill="currentColor"></path></svg>