<svg xmlns="http://www.w3.org/2000/svg" xmlns:xlink="http://www.w3.org/1999/xlink" version="1.1" viewBox="0 0 96 96" x="0px" y="0px" style="max-width:100%" height="100%"><path d="M26.916 83h-17.32c-2.128 0-4.148-1.036-5.4-2.764-1.248-1.736-1.584-3.964-0.908-5.996l9.916-29.584c0.344-1.012 0.196-2.752-0.304-3.576-0.5-0.844-1.372-1.416-2.376-1.572-2.5-0.392-4.624-1.848-5.824-3.992-1.224-2.192-1.364-4.664-0.396-6.964l2.216-5.064c1.176-2.8 3.96-4.488 7.44-4.488h77.088c1.104 0 2 0.9 2 2v8.548c0 4.472-3.204 9.452-7.8 9.452h-40.040c-1.556 0-2.944 1.112-3.308 2.648l-8.516 36.224c-0.704 3.020-3.368 5.128-6.468 5.128zM13.964 23c-1.084 0-3.008 0.268-3.764 2.068l-2.216 5.068c-0.476 1.12-0.412 2.328 0.212 3.424 0.596 1.076 1.668 1.792 2.94 1.992 2.176 0.336 4.072 1.592 5.196 3.452 1.104 1.824 1.396 4.796 0.668 6.916l-9.916 29.584c-0.264 0.804-0.132 1.696 0.368 2.392 0.496 0.692 1.296 1.096 2.148 1.096h17.316c1.24 0 2.296-0.84 2.584-2.044l8.516-36.228c0.796-3.38 3.752-5.74 7.2-5.74h40.044c2.052 0 3.8-3 3.8-5.452v-6.528h-75.096z" fill="currentColor" style=""></path><path d="M37.384 57.124c-1.1 0-2-0.904-2-2 0-1.104 0.9-2 2-2 16.844 0 19.808-5.204 19.808-16.124 0-1.104 0.896-2 2-2s2 0.896 2 2c0 12.42-3.98 20.124-23.808 20.124z" fill="currentColor" style=""></path><path d="M48.288 49.344c-0.268 0-0.544-0.056-0.804-0.168-4.9-2.148-7.228-5.536-7.124-10.352 0.024-1.1 0.924-1.94 2.040-1.956 1.104 0.024 1.984 0.936 1.96 2.048-0.068 3.136 1.348 5.112 4.736 6.596 1.012 0.444 1.472 1.624 1.032 2.636-0.336 0.752-1.072 1.196-1.84 1.196z" fill="currentColor" style=""></path><path d="M87.056 21c-1.1 0-2-0.896-2-2v-4c0-1.104 0.9-2 2-2 1.104 0 2 0.896 2 2v4c0 1.104-0.896 2-2 2z" fill="currentColor" style=""></path><path d="M19.056 21c-1.1 0-2-0.896-2-2v-4c0-1.104 0.9-2 2-2 1.104 0 2 0.896 2 2v4c0 1.104-0.896 2-2 2z" fill="currentColor" style=""></path></svg>