<svg xmlns="http://www.w3.org/2000/svg" xmlns:xlink="http://www.w3.org/1999/xlink" viewBox="0 0 16 16" version="1.1" style="max-width:100%" height="100%">
<g id="surface1" style="" fill="currentColor">
<path style="" d="M 5 3 C 3.902344 3 3 3.902344 3 5 C 3 6.097656 3.902344 7 5 7 C 6.097656 7 7 6.097656 7 5 C 7 3.902344 6.097656 3 5 3 Z M 12.269531 3.023438 L 3.023438 12.269531 L 3.726563 12.980469 L 12.980469 3.726563 Z M 5 4 C 5.558594 4 6 4.441406 6 5 C 6 5.558594 5.558594 6 5 6 C 4.441406 6 4 5.558594 4 5 C 4 4.441406 4.441406 4 5 4 Z M 11 9 C 9.902344 9 9 9.902344 9 11 C 9 12.097656 9.902344 13 11 13 C 12.097656 13 13 12.097656 13 11 C 13 9.902344 12.097656 9 11 9 Z M 11 10 C 11.558594 10 12 10.441406 12 11 C 12 11.558594 11.558594 12 11 12 C 10.441406 12 10 11.558594 10 11 C 10 10.441406 10.441406 10 11 10 Z " fill="currentColor"></path>
</g>
</svg>