<svg xmlns="http://www.w3.org/2000/svg" viewBox="0 0 128 128" style="max-width:100%" height="100%">
    <path d="M 64 6 C 48.5 6 33.9 12 23 23 C 6 39.9 1.2007813 65.099609 10.800781 87.099609 C 11.300781 88.199609 12.399609 88.900391 13.599609 88.900391 C 13.999609 88.900391 14.400781 88.799219 14.800781 88.699219 C 16.300781 87.999219 17.000391 86.300781 16.400391 84.800781 C 7.7003906 65.000781 11.999219 42.399219 27.199219 27.199219 C 37.099219 17.399219 50.1 12 64 12 C 75.7 12 86.800391 15.800391 95.900391 22.900391 L 90.599609 23.5 C 88.999609 23.7 87.8 25.200781 88 26.800781 C 88.2 28.300781 89.5 29.400391 91 29.400391 L 91.400391 29.400391 L 103.40039 28 C 105.00039 27.8 106.1 26.400781 106 24.800781 L 105.30078 13.5 C 105.20078 11.8 103.79961 10.599219 102.09961 10.699219 C 100.39961 10.799219 99.200781 12.200391 99.300781 13.900391 L 99.5 18 C 89.4 10.3 77 6 64 6 z M 64 29.800781 C 50.4 29.800781 39.4 40.800781 39 54.800781 C 38.6 68.800781 53.599609 88.600391 60.099609 96.400391 C 61.099609 97.500391 62.500391 98.199219 63.900391 98.199219 C 65.300391 98.199219 66.799219 97.500391 67.699219 96.400391 C 74.199219 88.600391 89.300781 68.800781 88.800781 54.800781 C 88.600781 40.800781 77.6 29.800781 64 29.800781 z M 114.25977 38.828125 C 113.86914 38.8375 113.47461 38.924609 113.09961 39.099609 C 111.59961 39.799609 110.89961 41.499609 111.59961 43.099609 C 120.29961 62.899609 116.10078 85.600391 100.80078 100.90039 C 90.900781 110.60039 77.9 116 64 116 C 52.3 116 41.199609 112.19961 32.099609 105.09961 L 37.400391 104.5 C 39.000391 104.3 40.2 102.79922 40 101.19922 C 39.8 99.599219 38.299219 98.399609 36.699219 98.599609 L 24.699219 100 C 23.099219 100.2 21.999609 101.59922 22.099609 103.19922 L 22.800781 114.5 C 22.900781 116.1 24.200781 117.30078 25.800781 117.30078 L 26 117.30078 C 27.7 117.20078 28.900781 115.79961 28.800781 114.09961 L 28.599609 110 C 38.599609 117.7 51 122 64 122 C 79.5 122 94.1 116 105 105 C 122.1 87.9 126.79961 62.699609 117.09961 40.599609 C 116.57461 39.474609 115.43164 38.8 114.25977 38.828125 z M 64 44.800781 C 69.5 44.800781 74 49.300781 74 54.800781 C 74 60.300781 69.5 64.800781 64 64.800781 C 58.5 64.800781 54 60.300781 54 54.800781 C 54 49.300781 58.5 44.800781 64 44.800781 z" style="" fill="currentColor"></path>
</svg>