<svg xmlns="http://www.w3.org/2000/svg" xmlns:xlink="http://www.w3.org/1999/xlink" version="1.1" x="0px" y="0px" viewBox="0 0 100 100" enable-background="new 0 0 100 100" xml:space="preserve" style="max-width:100%" height="100%"><g style="" fill="currentColor"><path fill="currentColor" d="M50.602,2C24.467,2,3.205,23.206,3.205,49.275c0,26.065,21.262,47.275,47.396,47.275   C76.737,96.551,98,75.341,98,49.275C98,23.206,76.737,2,50.602,2z M50.602,93.479c-24.432,0-44.306-19.825-44.306-44.204   S26.17,5.067,50.602,5.067c24.434,0,44.312,19.829,44.312,44.208S75.035,93.479,50.602,93.479z" style=""></path><path fill="currentColor" d="M50.602,16.145c-18.342,0-33.21,14.835-33.21,33.131s14.868,33.124,33.21,33.124   c18.344,0,33.208-14.828,33.208-33.124S68.945,16.145,50.602,16.145z M50.602,71.682c-12.401,0-22.459-10.035-22.459-22.406   c0-12.379,10.058-22.406,22.459-22.406c12.408,0,22.461,10.027,22.461,22.406C73.062,61.646,63.01,71.682,50.602,71.682z" style=""></path><path fill="currentColor" d="M61.955,49.275c0,6.255-5.081,11.324-11.354,11.324c-6.271,0-11.353-5.069-11.353-11.324   c0-6.259,5.082-11.328,11.353-11.328C56.874,37.947,61.955,43.017,61.955,49.275z" style=""></path></g></svg>